# xmcd CD Database Entry
#
# Track frame offsets:
# 183
# 14005
# 28615
# 44020
# 57760
# 71758
# 85388
# 98710
# 112963
# 127693
# 140820
# 154255
# 167385
# 180133
# 193813
# 208638
# 222290
# 237970
#
# Disc length: 3382 seconds
#
# Revision: 1
# Processed by: cddbd v1.4b41PL1 Copyright (c) Steve Scherf et al.
# Submitted via: tcd 2.0b
#
DISCID=f90d3412
DTITLE=Bessie Smith - Alexander's Ragtime Band
DYEAR=1900
DGENRE=
TTITLE0=Alexander's Ragtime Band
TTITLE1=Trombone Cholly
TTITLE2=Send Me to the 'Lectric Chair
TTITLE3=Lock and Key
TTITLE4=A Good Man is Hard to Find
TTITLE5=Dyin' By the Hour
TTITLE6=Foolish Man Blues
TTITLE7=Thinking Blues
TTITLE8=Devil's Gonna Get You
TTITLE9=I Used to Be Your Swee Mama
TTITLE10=Standing in the Rain
TTITLE11=I'm Wild About That Thing
TTITLE12=You've Got to Give Me Some
TTITLE13=Kitchen Man
TTITLE14=He's Got Me Goin'
TTITLE15=Blue Spirit Blues
TTITLE16=Do Your Duty
TTITLE17=Gimme a Pigfoot
EXTD=
EXTT0=
EXTT1=
EXTT2=
EXTT3=
EXTT4=
EXTT5=
EXTT6=
EXTT7=
EXTT8=
EXTT9=
EXTT10=
EXTT11=
EXTT12=
EXTT13=
EXTT14=
EXTT15=
EXTT16=
EXTT17=
PLAYORDER=
